<?xml version="1.0" encoding="UTF-8"?>
<svg id="Layer_2" data-name="Layer 2" xmlns="http://www.w3.org/2000/svg" viewBox="0 0 686.97 510.85">
  <defs>
    <style>
      .cls-1 {
        fill: #2979ff;
      }

      .cls-2 {
        fill: none;
        stroke: #263238;
        stroke-linecap: round;
        stroke-linejoin: round;
        stroke-width: 5px;
      }
    </style>
  </defs>
  <g id="_800x1200px" data-name="800x1200px">
    <g>
      <g>
        <path class="cls-1" d="M457.99,46.15c3.88-.87,6.43-5.74,3.05-9.92-3.1-3.83-6.2-7.67-9.3-11.5-2.21-2.73-4.89-7.96-8.68-8.51-1.69-.24-3.74-.23-5.16.89-3.69-3.05-7.38-6.09-11.07-9.14-5.97-4.93-13.33,2.48-8.45,8.45,1.47,1.8,2.94,3.6,4.41,5.41-1.6-1-3.21-1.99-4.83-2.96-6.03-3.61-11.62,4.43-7.24,9.39.1.11.19.22.29.33-5.46-2.73-9.96,5.43-6.26,9.99,4.32,5.33,8.65,10.65,12.97,15.98-5.11-3.6-10.21-7.2-15.32-10.8-4.84-3.41-11.5,3.35-8.18,8.18,3.37,4.9,6.91,9.67,10.56,14.35-1.14-.58-2.29-1.17-3.44-1.74-5.94-2.93-12.14,4.32-7.24,9.39,2.6,2.69,5.18,5.41,7.76,8.12-4.01.76-6.89,6.78-3.37,10.36.3.31.6.62.9.93-5.45-2.06-10.74,4.16-6.41,9.51,4.1,5.08,8.21,10.15,12.31,15.23-5.97-4.65-11.88-9.38-17.73-14.18-5.83-4.79-13.56,2.62-8.38,8.38,5.32,5.92,10.66,11.82,15.99,17.73-2.1-1.57-4.2-3.13-6.3-4.69-5.67-4.23-11.14,4.49-7.12,9.23,1.48,1.74,2.96,3.46,4.45,5.19-5.74-3.94-12.89,2.95-7.85,8.54,3.16,3.51,6.37,6.97,9.57,10.44-.88-.56-1.75-1.12-2.64-1.68-4.55-2.84-11.34,3.14-7.78,7.78,4.68,6.11,9.52,12.06,14.49,17.9-3-1.84-6.01-3.66-9.05-5.44-5.08-2.97-11.17,4.33-6.46,8.38,5.48,4.72,10.89,9.52,16.25,14.37-13.31-9.86-27.02-19.22-40.51-28.87.33.18.66.36.99.54,5.72,3.14,12.42-4.69,7.21-9.35l-13.14-11.75c.17.1.34.19.51.29,5.77,3.22,12.27-4.6,7.22-9.35l-11.44-10.75c.1.06.2.11.3.17,5.99,3.46,11.71-4.4,7.22-9.36-5.12-5.66-10.24-11.31-15.36-16.97,3,1.57,6.01,3.1,9.06,4.59,7.04,3.43,12.04-5.7,6.02-10.29-5.18-3.95-10.23-8.05-15.18-12.27,1.57.85,3.14,1.7,4.7,2.55,5.67,3.08,12.71-4.93,7.23-9.37-2.47-2-4.94-4-7.41-6,2.55-2.03,3.6-6.05.75-8.94-.91-.92-1.82-1.85-2.73-2.77.03.02.05.03.08.05,5.76,3.76,11.93-4.62,7.24-9.38-2.11-2.13-4.21-4.27-6.32-6.4,2.6-1.97,3.65-6.47,1.24-9.5-.23-.29-.46-.56-.69-.85,2.47-1.72,3.87-5.17,2.04-8.03-1.44-2.23-2.94-4.41-4.51-6.55,2.01-2.11,2.53-5.29-.44-7.59-4.57-3.55-9.27-6.65-14.48-9.19-3.59-1.75-7.42.31-8.67,3.31-1.82-1.26-3.65-2.51-5.47-3.77-5.26-3.62-11.78,4.19-7.92,8.71-2.77,1.75-4.25,5.9-1.99,8.92-.1-.07-.21-.14-.31-.2-5.76-3.76-11.92,4.62-7.23,9.37,3.05,3.09,6.09,6.17,9.14,9.26-1.46-.87-2.92-1.74-4.38-2.61-5.65-3.36-12.62,5.01-7.23,9.37,3.08,2.49,6.16,4.99,9.24,7.48-3.65,1.31-5.74,6.23-2.4,9.81,2.82,3.03,5.71,5.99,8.62,8.92-3.95.86-6.45,6.6-3.14,10.25,5.47,6.04,10.94,12.08,16.41,18.12-4-2.31-8-4.62-12-6.93-5.76-3.33-12.24,4.64-7.22,9.35,4.6,4.33,9.21,8.65,13.81,12.98-1.73-.96-3.45-1.92-5.18-2.89-5.72-3.19-12.41,4.7-7.21,9.35,4.76,4.25,9.51,8.51,14.27,12.76l-12.29-6.75c-5.84-3.21-12.1,4.48-7.21,9.34,1.43,1.42,2.88,2.82,4.35,4.21-4.24.31-7.09,6.54-3.77,10.38,5.14,5.94,10.62,11.48,16.34,16.75-10.48-7.24-20.89-14.68-33.93-16.02-5.19-.53-7.73,6.8-4.19,10.12,2.44,2.29,4.92,4.55,7.41,6.78-4.52-2.69-9.06-5.35-13.63-7.96-4.82-2.75-9.4,1.96-8.39,6.39-2.13,1.38-3.55,3.94-2.58,6.42,3.1,7.94,7.88,14.51,13.6,20.29-4.82-.48-9.43,5.9-4.83,9.51.3.24.6.47.9.71-1.86-.98-3.74-1.94-5.63-2.88-5.38-2.66-11.92,4.39-6.81,8.83,1.73,1.5,3.47,3,5.2,4.5-5.56-3.05-11.23-5.9-17.03-8.5-5.36-2.39-12.23,4.39-6.87,8.91.5.42,1,.84,1.5,1.26-.69-.37-1.36-.75-2.05-1.11-5.7-2.96-11.71,4.25-6.98,9.05,34.63,35.09,75.1,63.26,114.15,93.13-38.89-27.6-77.12-56.17-115.42-84.49-2.23-1.65-4.92.17-5.68,2.41-3.23,1.68-5.15,6.18-1.83,9.56,10.65,10.84,22.09,20.68,33.97,29.97-8.39-5.77-16.8-11.51-25.24-17.21-5.91-3.99-11.39,4.5-7.21,9.35,11.69,13.56,24.66,25.65,38.27,37.05-9.1-6.95-18.2-13.91-27.3-20.85-5.34-4.08-12.27,4.92-7.2,9.34,16.03,13.96,32.07,27.92,48.1,41.88-14.82-10.48-29.75-20.8-44.8-30.9-5.53-3.71-12.45,5.03-7.2,9.33.94.78,1.89,1.55,2.83,2.33-2.69,1.86-3.91,5.6-.77,8.59,14.74,13.98,29.52,27.93,44.32,41.85-13.05-10.58-26.08-21.17-39.09-31.81-5.47-4.48-13.25,2.85-7.93,7.93,26.18,24.99,52.42,49.91,78.69,74.81-23.81-20.24-47.62-40.49-71.38-60.8-5.39-4.61-12.21,2.32-7.73,7.73,3.25,3.93,6.61,7.75,10.05,11.48-3.07,1.54-4.8,5.56-1.52,8.62,1.99,1.86,3.99,3.72,5.98,5.58-3.44.86-5.83,5.1-2.53,8.4,12.03,12.03,24.06,24.07,36.09,36.1-5.55-4.36-11.12-8.71-16.7-13.02,0,0,0,0-.01-.01h0c-.3-.23-.6-.47-.91-.7-4.13-3.19-8.9,3.52-5.45,7.06,5.33,5.46,10.69,10.88,16.07,16.27-1.7.99-2.68,2.98-1.23,5.11,2.51,3.71,5.13,7.35,7.81,10.93-2.89-.2-5.89,2.53-3.78,5.53,2.66,3.79,5.31,7.57,7.97,11.36-2.49-.63-5.47,1.7-4.56,4.55,1.57,4.96,4.01,9.2,7.49,13.06,1.87,2.08,4.42,1.09,5.53-.79,2.25,1.63,4.57,3.16,6.98,4.6,3.13,1.86,7.49-2,5.23-5.23-1.85-2.64-3.7-5.29-5.56-7.94,4.38,3.67,8.76,7.33,13.14,11,3.76,3.16,9.16-2.02,5.47-5.47-5.07-4.74-9.92-9.68-14.59-14.78,9.26,7.9,18.53,15.79,27.78,23.7,3.98,3.4,9.73-2.15,5.82-5.82-3.59-3.38-7.17-6.77-10.74-10.18,7.85,6.59,15.67,13.23,23.44,19.9,4.75,4.08,11.49-2.4,6.96-6.96-7.6-7.66-15.21-15.3-22.81-22.94l31.13,26.22c3.77,3.17,8.74.18,9.1-3.5,4.55,3.83,9.1,7.66,13.65,11.49,5.47,4.6,12.22-2.29,7.77-7.77-1.24-1.53-2.49-3.03-3.76-4.52,2.43,1.53,4.88,3.03,7.37,4.47,5.42,3.14,11.44-4.33,6.77-8.78-18.97-18.04-37.94-36.08-56.9-54.12,15.9,13,31.81,25.98,47.76,38.93,5.79,4.7,14.03-3.05,8.37-8.37-14.33-13.45-28.64-26.92-42.94-40.39,11.37,9.23,22.75,18.45,34.16,27.64,5.72,4.61,13.82-2.95,8.26-8.26-16.03-15.34-32.39-30.31-48.97-45.04,13.74,10.16,27.48,20.33,41.26,30.46,5.23,3.85,11.85-4.75,6.96-9.02-7.7-6.72-15.38-13.45-23.08-20.17,7.04,5.38,14.08,10.75,21.11,16.13,4.69,3.58,11.58-3.47,8.16-8.16-21.75-29.86-50.01-52.79-79.01-74.95,29.91,21.68,59.47,43.84,88.66,66.49,4.79,3.71,13.66-1.15,9.35-7.21-8.04-11.29-17.02-21.57-26.66-31.15,8.27,5.55,16.59,11.03,24.98,16.42,5.3,3.41,10.88-4.2,6.62-8.58-13.46-13.81-27.82-26.57-42.64-38.79,13.54,8.67,27.37,16.88,41.59,24.5,6.33,3.4,11.09-5.34,5.52-9.44-4.98-3.66-9.95-7.32-14.93-10.99,3.88,1.9,7.81,3.7,11.8,5.39.02.01.03.02.05.04,0,0,0,0,0-.01.44.19.87.38,1.31.57,6.03,2.51,9.12-6.79,4.24-10.05-3.82-2.56-7.61-5.14-11.4-7.74,3.42,1.96,6.89,3.86,10.41,5.68,5.4,2.78,12.24-4.73,6.9-8.94-23.43-18.44-46.89-36.86-70.35-55.28,23.16,16.38,45.95,33.31,68.76,50.18,5.24,3.88,12.08-4.9,7.01-9.09-4.54-3.75-9.09-7.47-13.66-11.19,1.2.5,2.41.99,3.65,1.43,6.63,2.4,9.54-7.1,4.5-10.67-.68-.48-1.36-.97-2.05-1.46,3.62-1.32,6-6.78,2.59-10.07-24.78-24.01-52.65-44.21-80.43-64.53,23.25,15.84,46.5,31.68,69.75,47.52,5.82,3.96,11.48-4.52,7.19-9.32-2.96-3.32-6.04-6.5-9.19-9.6l11.15,7.8c5.73,4.01,11.6-4.57,7.2-9.34-2.34-2.54-4.74-4.99-7.18-7.41,1.76-1.18,2.65-3.78.79-5.89-2.86-3.25-5.77-6.44-8.71-9.61,2.16,1.55,4.31,3.11,6.46,4.69,5.14,3.78,11.43-4.53,6.8-8.81-8.05-7.42-15.82-15.16-23.31-23.17,6.26,4.6,12.41,9.33,18.45,14.22,5.59,4.52,13.42-2.79,8.07-8.07-.72-.71-1.43-1.44-2.15-2.16,4.9.53,9.33-5.12,4.95-9.63-4.63-4.77-9.23-9.59-13.78-14.44,2.43,1.81,4.86,3.61,7.29,5.42,5.57,4.15,11.32-4.51,7.1-9.2-4.34-4.83-8.68-9.66-13.02-14.49,1.85,1.32,3.7,2.64,5.56,3.95,5.92,4.16,11.06-4.48,7.17-9.29-2.85-3.53-5.69-7.05-8.54-10.58.98.77,1.97,1.55,2.95,2.32,4.75,3.74,13.76-1.27,9.34-7.2-.97-1.3-1.96-2.6-2.95-3.89,5.17,2.15,9.79-5.74,5.9-10.15-6.16-6.98-12.39-13.89-18.67-20.75.7.48,1.41.96,2.11,1.45,5.6,3.92,12.09-4.76,7.24-9.39-3.19-3.04-6.3-6.16-9.33-9.35,5.11,3.6,10.22,7.2,15.32,10.8,5.97,4.2,11.19-4.53,7.24-9.39-3.56-4.39-7.13-8.78-10.69-13.17l6.22,4.58c5.73,4.23,11.49-4.58,7.24-9.39l-2.91-3.29c5.6,2.88,11.52-3.91,7.03-9.39-.86-1.06-1.72-2.11-2.59-3.17Z"/>
        <g>
          <path d="M235.35,412.07c5.08,11.38,11.99,21.75,17.75,32.77,6.45,12.33,10.37,25.49,12.54,39.2.51,3.23.89,6.47,1.21,9.71.84,0,1.68,0,2.53,0-1.24-10.95-3.34-21.78-6.69-32.04-7.12-21.78-22-39.85-29.69-61.43-15.07-42.27-12.04-88.38-10.41-132.43.47-12.76-.49-26.82,3.42-39.12,3.68-11.56,14.71-21.49,27.43-17.25-.58,2.02-.85,4.27-.73,6.76.53,11.08,7.26,20.91,15.22,28.17,4.34,3.95,9.14,7.26,14.15,10.27-.16.3-.2.66-.03,1.04,3.26,7.33,6.52,14.87,9.38,22.54-8.42-2.63-23.02-.56-24.19,10.29-1.14,10.65,7.3,22.79,14.73,30-3.43-.75-6.75-2.32-9.49-4.17-12.22-8.24-18.97-22.23-24.08-35.58-4.67-12.2-8.02-26.09-16.64-36.27-.44-.52-1.3.15-.94.73,9.52,15.43,13.14,33.34,21.19,49.45,5.86,11.73,15.38,24.75,28.91,27.86,12.45,2.86,21.27-5.47,19.8-18.01-.91-7.71-3.96-15.29-6.54-22.57-2.85-8.05-6.04-15.97-9.48-23.78,15.65,8.94,32.99,15.48,45.08,29.16,2.55,2.89,4.82,6.08,6.51,9.55,1.45,2.97,1.76,6.39-.63,9-1.03,1.12-2.47,1.98-3.62,2.98-4.76,4.14-8.61,9.33-11.35,15.01-5.59,11.59-6.62,24.98-2.53,37.2.45,1.36,2.62.78,2.16-.6-3.89-11.64-3.02-24.41,2.3-35.48,2.55-5.32,6.08-10.16,10.47-14.11,3.1-2.79,7.46-5.08,7.06-9.84-.38-4.53-4.17-9.49-6.86-12.91-3.02-3.83-6.59-7.16-10.43-10.15-9.18-7.14-19.71-12.16-29.97-17.53-10.3-5.4-20.63-11.65-28.34-20.51-2.49-2.86-5.28-7.15-7.31-11.85,5.39,7.56,16.11,11.85,25.14,10.55,7.45-1.08,11.12-6.19,12.69-13.2.98-4.35,1.5-8.83,1.64-13.28.07-2.24.5-4.93-.97-6.65,2.95.35,5.9.7,8.86,1.06,14.32,1.71,29.05,2.88,42.68,7.91,27.48,10.13,43.56,35.9,58.53,59.46.43.67,1.48.06,1.07-.62-12.67-21.33-27.04-44.09-49.4-56.38-12.14-6.67-25.86-9.09-39.45-10.82-.9-.12-1.81-.24-2.71-.36-.21-7.58-1.25-15.23-1.95-22.77-.62-6.65-1.38-13.4-3.92-19.64-1.21-2.98-2.94-5.81-5.06-8.25-2.33-24.58-4.94-49.13-7.59-73.68-1.35-12.48-2.71-24.97-4.07-37.45-1.01-9.28-2.38-19.2.45-28.3,3.39-10.9,13.75-16,24.5-12.01,11.05,4.1,16.67,14.75,19.43,25.57,2.79,10.94,3.85,22.4,5.48,33.55,1.81,12.37,3.62,24.74,5.43,37.11,4.18,28.55,8.27,57.11,12.55,85.64.05.31.19.53.38.66.11.49.3.98.54,1.42-4.01-.05-7.97.28-11.62.93-.94.17-.73,1.75.23,1.67,5.13-.44,10.24-.6,15.38-.04,5.68.63,10.84,2.48,16.33,3.87,1.02.26,1.72-1.22.73-1.74-2.63-1.38-5.53-2.41-8.54-3.16,11.04-48.78,20.57-97.89,31.64-146.65,2.01-8.86,4.89-19.47,12.64-25.11,9.52-6.92,20.45-1.24,26.44,7.3,6.43,9.17,7.75,20.38,7.64,31.32-.12,12.3-1.88,24.63-3.84,36.75-7.61,47.09-22.06,93.13-22.05,141.21,0,24.53,2.74,48.97,2.66,73.51-.08,24.36-3.63,48.14-13.6,70.5-5.12,11.49-11.8,21.98-18.24,32.74-6.26,10.45-10.19,20.95-10.88,33.2-.8,14.16-.04,28.51.07,42.68l.07,8.82c.72.02,1.44.04,2.15.06-.22-15.36-.38-30.73-.15-46.07.2-13.94,3.58-25.59,10.73-37.52,6.01-10.02,12.23-19.79,17.17-30.41,10.09-21.69,14.39-44.72,14.91-68.54.57-25.75-2.45-51.4-2.59-77.14-.29-51.63,16.25-100.79,23.33-151.49,2.78-19.91,6.79-44.89-6.38-62.13-4.64-6.08-11.55-10.92-19.51-10.2-7.48.68-13.09,5.88-16.62,12.19-5.6,10.01-7.13,22.02-9.5,33.07l-9.49,44.25c-6.23,29.06-12.64,58.08-18.54,87.21-2.94-.6-5.96-.96-8.99-1.07-.42-.54-.6-1.08-.66-1.65.27-.25.44-.62.38-1.07-3.98-27.93-8.16-55.83-12.25-83.74-2.04-13.96-4.09-27.91-6.14-41.87-1.78-12.15-2.67-25.03-6.88-36.65-3.22-8.89-8.83-16.76-17.72-20.6-7.27-3.14-15.8-3.04-22.06,2.23-6.59,5.55-8.29,14.61-8.46,22.8-.25,12,1.95,24.19,3.24,36.09,3.26,30.06,6.5,60.12,10.16,90.13-4.19-3.99-9.63-6.47-15.75-5.84-25.22,2.59-37.54,33.94-25.92,54.57.04.08.1.13.15.18-3.39,1.61-5.9,4.3-7.28,7.9-6.89-3.38-14.53-1.28-20.38,3.33-7.48,5.9-10.42,15.16-11.59,24.29-1.59,12.44-1.34,25.24-1.8,37.76-.45,12.11-.91,24.23-1,36.35-.18,22.77.87,45.73,5.78,68.02,2.43,11.03,5.85,21.85,10.46,32.17ZM291.97,281.74c2.26,6.2,4.24,12.48,5.72,18.8,1.67,7.16,1.73,16.57-6.51,19.62-2.31.86-4.78,1.04-7.23.74-.01-.13-.05-.26-.16-.39-5.79-6.64-10.96-14.35-13.46-22.9-1.53-5.24-1.42-10.71,3.76-13.73,5.17-3.01,11.26-2.64,16.92-1.77.43.07.76-.11.97-.37ZM262.73,167.49c5.01-9.11,15.82-18.38,26.85-17.8,5.84.31,10.29,3.31,13.57,7.51.04.36.09.72.13,1.09.07.58.69.79,1.09.61,2.73,4.13,4.48,9.11,5.38,13.77,2.09,10.82,1.83,21.96,3.39,32.84-13.99-1.87-28.12-4.02-42.15-4.91-3.28-.21-6.22.22-8.75,1.19.02-.13.01-.26-.05-.41-4.8-10.78-5.23-23.39.55-33.9ZM260.24,204.67c6.08-4.06,15.41-1.5,22.11-.7l10.85,1.29c-.6.55-.15,1.61.73,1.4,1.94-.45-.76,18.82-1.03,19.83-2,7.33-7.3,10.9-14.86,10.53-11.21-.54-22.87-8.73-23.6-20.59,0-.01,0-.01-.01-.02-.04-4.65,1.54-8.89,5.81-11.74Z"/>
          <path d="M330.52,73.11c-6.6,1.62-12.36,2.24-19.05.65-.8-.19-1.12.98-.34,1.23,6.36,1.98,13.76,2.12,19.92-.63.73-.33.2-1.44-.53-1.26Z"/>
          <path d="M337.44,145.77c-5.91.18-11.59-.32-17.3-1.9-.84-.23-1.18,1.03-.36,1.3,5.7,1.85,11.69,2.62,17.66,1.92.82-.1.87-1.35,0-1.32Z"/>
          <path d="M421.01,147.12c-6.63.52-12.24.21-18.11-3.3-.73-.44-1.36.67-.66,1.13,5.38,3.54,12.66,5.47,18.93,3.33.6-.2.55-1.23-.16-1.17Z"/>
          <path d="M436.64,89.53c-3.09-.75-6.26-.91-9.34-1.76-3.46-.96-6.72-2.38-9.89-4.06-.74-.39-1.38.7-.66,1.12,5.63,3.33,13.05,6.49,19.72,5.9.65-.06.87-1.03.16-1.2Z"/>
          <path d="M344.84,236.92c.25-1.23.58-2.45,1-3.64.88-2.52,2.15-4.8,3.63-7.01.45-.68-.61-1.26-1.08-.63-2.98,4.02-4.78,8.77-5.14,13.77-.08,1.11.52,5.29,2.46,3.39.42-.41-.21-1.03-.64-.64-.71-1.35-.85-2.74-.42-4.18.06-.35.13-.71.19-1.06Z"/>
          <path d="M358.66,233.55c-3.03,2.04-4.72,5.43-5.11,9.01-.04.37.59.46.65.09.62-3.42,2.44-6.12,4.97-8.43.35-.32-.11-.94-.51-.66Z"/>
          <path d="M249.24,217.7c-2.94-.84-6.16,1.75-7.38,4.23-.29.59.56,1.1.89.52.68-1.2,1.63-2.15,2.87-2.78,1.16-.59,2.38-.62,3.63-.89.56-.12.51-.93,0-1.08Z"/>
        </g>
      </g>
      <polyline class="cls-2" points="189.99 473.53 111.99 488.53 138.99 439.03 2.5 395.53 141.99 356.53 34 284.54 146.49 304.04 86.5 233.54 171.99 239.54 26.5 122.55 186.99 160.04 114.99 73.05 210.99 103.05 156.99 32.55"/>
      <polyline class="cls-2" points="496.98 473.53 574.97 488.53 547.97 439.03 684.47 395.53 544.97 356.53 652.97 284.54 540.48 304.04 600.47 233.54 514.98 239.54 660.47 122.55 499.98 160.04 571.97 73.05 475.98 103.05 529.98 32.55"/>
    </g>
  </g>
</svg>